<svg width="50.00000000000001" height="50.00000000000001" xmlns="http://www.w3.org/2000/svg">
 <!-- Created with Method Draw - http://github.com/duopixel/Method-Draw/ -->

 <g>
  <title>background</title>
  <rect x="-1" y="-1" width="52" height="52" id="canvas_background" fill="none"/>
  <g id="canvasGrid" display="none">
   <rect id="svg_3" width="100%" height="100%" x="0" y="0" stroke-width="0" fill="none"/>
  </g>
 </g>
 <g>
  <title>Layer 1</title>
  <path fill="#ffff00" stroke="#000" stroke-width="0" d="m22.7097,39.81914l7.61904,-9.23027l-14.73104,0l-14.73101,0l0,-5.71397l0,-5.71398l14.56202,0c8.0091,0 14.56201,-0.28961 14.56201,-0.64358c0,-0.35396 -3.1884,-4.50759 -7.08532,-9.23027l-7.08534,-8.58669l6.54902,0l6.549,0l10.0018,12.09884l10.00179,12.09883l-10.02098,12.07568l-10.02098,12.07568l-6.89452,0l-6.89454,0l7.61906,-9.23027l0,0l-0.00001,0z" id="svg_1" transform="rotate(90 24.89417839050293,24.8748893737793) "/>
  <path fill="#4c4c4c" stroke="#000" stroke-width="1.5" opacity="0.5" d="m256.5,106.95001" id="svg_2"/>
 </g>
</svg>